<svg xmlns="http://www.w3.org/2000/svg" viewBox="0 0 6652.054 6904.571">
  <g id="Layer_x0020_1" transform="translate(-853.594 -2499.324)">
    <g id="_3209269991792">
      <path id="Path_1" data-name="Path 1" d="M3683.7,5462.08h960.38c374.1-3451.53-3680.71-3879.17-3781.74-483.81-17.61,592.6,13.95,1216.04,17.4,1811.95,7.56,1299.74,299.49,2376.2,1845.07,2609.64l-4.09-1106.25s-796.78-6.02-887.09-1031.9c-39.79-452.11-74.65-2251.17,63.17-2859,191.88-846.46,1437.98-921.27,1734.41-12.72,81.39,249.41,49.42,793.96,52.5,1072.08Z" fill="#ff9127" stroke="#ff9127" stroke-miterlimit="2.613" stroke-width="6.94" fill-rule="evenodd"/>
      <path id="Path_2" data-name="Path 2" d="M4675.53,6441.14H3715.15c-374.1,3451.53,3680.71,3879.17,3781.74,483.81,17.61-592.61-13.95-1216.04-17.4-1811.95C7471.93,3813.26,7180,2736.8,5634.42,2503.36l4.09,1106.25s796.78,6.02,887.09,1031.89c39.79,452.11,74.65,2251.18-63.17,2859-191.88,846.46-1437.98,921.27-1734.41,12.72-81.39-249.41-49.42-793.96-52.5-1072.08Z" fill="#ff9127" stroke="#ff9127" stroke-miterlimit="2.613" stroke-width="6.94" fill-rule="evenodd"/>
    </g>
  </g>
</svg>
